<svg width="24" height="24" viewBox="0 0 24 24" fill="none" xmlns="http://www.w3.org/2000/svg">
<path d="M11.9785 0C5.35102 0 -0.0214844 5.3725 -0.0214844 12C-0.0214844 18.6275 5.35102 24 11.9785 24C18.606 24 23.9785 18.6275 23.9785 12C23.9785 5.3725 18.606 0 11.9785 0ZM12.3315 18.28C12.106 18.523 11.786 18.6445 11.3695 18.6445C10.9535 18.6445 10.634 18.526 10.4115 18.2885C10.189 18.051 10.0775 17.7185 10.0775 17.291C10.0775 16.406 10.508 15.964 11.3695 15.964C11.7915 15.964 12.1135 16.0795 12.3365 16.311C12.5595 16.5425 12.6705 16.869 12.6705 17.291C12.6705 17.707 12.557 18.0365 12.3315 18.28ZM15.4655 9.7015C15.3365 10.0445 15.1415 10.371 14.8805 10.6815C14.6195 10.992 14.1705 11.3965 13.532 11.8945C12.987 12.322 12.622 12.6765 12.4375 12.958C12.2815 13.1955 12.196 13.506 12.172 13.8815C12.1705 13.8895 12.168 13.892 12.1665 13.9C12.0615 14.4915 11.3745 14.4875 11.3745 14.4875H11.0135C11.0135 14.4875 10.416 14.3935 10.4385 13.925C10.4385 13.2805 10.5555 12.7445 10.79 12.3165C11.0245 11.8885 11.435 11.4465 12.0205 10.9895C12.718 10.4385 13.167 10.011 13.369 9.7065C13.571 9.402 13.6725 9.0385 13.6725 8.6165C13.6725 8.1245 13.5085 7.7465 13.1805 7.4825C12.8525 7.2185 12.3805 7.087 11.7655 7.087C11.2085 7.087 10.693 7.166 10.2185 7.3245C9.95952 7.411 9.70502 7.509 9.45252 7.6145C9.44702 7.6165 9.44501 7.6155 9.43902 7.618C8.85602 7.8435 8.58552 7.385 8.58552 7.385L8.35651 6.9055C8.35551 6.9025 8.09852 6.317 8.67152 6.0595C9.69302 5.5925 10.7735 5.3565 11.9145 5.3565C13.0625 5.3565 13.974 5.638 14.6475 6.2005C15.321 6.763 15.658 7.5395 15.658 8.5295C15.6585 8.968 15.594 9.359 15.4655 9.7015Z" fill="#4E4E50"/>
</svg>
