<svg width="24" height="18" viewBox="0 0 24 18" fill="none" xmlns="http://www.w3.org/2000/svg">
<path d="M12.9644 4.70724C12.9644 3.28668 13.441 2.14836 14.3957 1.29228C15.3505 0.43548 16.5392 0.00708008 17.9576 0.00708008C19.7698 0.00708008 21.1889 0.58236 22.2171 1.73292C23.2453 2.88276 23.7601 4.41348 23.7601 6.32292C23.7601 8.2806 23.4548 9.94596 22.8421 11.3168C22.2301 12.687 21.4964 13.8246 20.6381 14.7318C19.7828 15.6376 18.8885 16.3475 17.9576 16.8616C17.0281 17.3756 16.2202 17.7536 15.5348 17.9999L13.184 14.0341C14.1632 13.6417 14.9962 13.0175 15.6809 12.1607C16.3671 11.3039 16.7581 10.3859 16.8567 9.4074C15.8782 9.4074 14.9833 8.97756 14.1754 8.12148C13.3676 7.26468 12.9644 6.12636 12.9644 4.70724ZM0.258545 4.70724C0.258545 3.28668 0.735905 2.14836 1.69062 1.29228C2.64534 0.43476 3.83334 0.00708008 5.25246 0.00708008C7.06542 0.00708008 8.48382 0.58236 9.51198 1.73292C10.5409 2.88276 11.0549 4.41348 11.0549 6.32292C11.0549 8.2806 10.7497 9.94596 10.1369 11.3168C9.52494 12.687 8.79126 13.8246 7.93374 14.7318C7.07838 15.6376 6.18342 16.3475 5.25246 16.8616C4.32294 17.3756 3.51582 17.7536 2.82966 17.9999L0.479585 14.0341C1.45878 13.6417 2.2911 13.0175 2.97582 12.1607C3.66198 11.3039 4.05366 10.3859 4.15158 9.4074C3.1731 9.4074 2.27814 8.97756 1.47102 8.12148C0.662465 7.26468 0.258545 6.12636 0.258545 4.70724Z" fill="#555555"/>
</svg>
