<svg width="32" height="32" viewBox="0 0 32 32" fill="none" xmlns="http://www.w3.org/2000/svg">
<path fill-rule="evenodd" clip-rule="evenodd" d="M21.8112 10.7456C21.3132 10.309 20.597 10.319 20.1861 10.4458C20.4553 10.1153 21.0822 9.84424 21.267 9.81135C21.4077 9.86409 21.8111 10.2787 21.8111 10.7456L21.8112 10.7456ZM23.4012 8.93773C23.0737 7.18589 19.0024 8.34661 16.952 7.60252C16.9127 8.1132 17.5832 8.93149 18.2246 9.23436C17.1283 10.1858 16.144 12.1027 15.9454 14.4447C15.7475 12.1027 14.7632 10.1858 13.6669 9.23436C14.3082 8.93149 14.9793 8.1132 14.9395 7.60252C12.8891 8.34661 8.81774 7.18589 8.48967 8.93773C8.42067 9.30845 8.59905 9.87352 8.79179 10.0359C8.82622 9.91843 9.00624 9.53408 9.57376 9.44791C12.4422 9.01452 14.837 13.4353 12.6753 15.2227C12.6423 15.2499 12.6608 15.3001 12.7055 15.3001H19.1864C19.2305 15.3001 19.2491 15.2499 19.2168 15.2227C17.0544 13.4353 19.4493 9.01452 22.3176 9.44791C22.8857 9.53408 23.0651 9.91843 23.0997 10.0359C23.2924 9.87352 23.4707 9.3085 23.4012 8.93768V8.93773ZM24.0988 4.91693C24.0473 4.75142 25.7292 4.74728 25.7292 5.79993C25.7292 6.50546 24.7232 6.83961 24.7232 7.57173C24.7232 7.91272 25.09 8.16285 25.2026 8.16285C24.9435 6.9874 26.0149 7.60252 26.3042 7.82236C25.7292 6.24166 27.0236 6.25164 26.8961 5.52685C26.8075 5.02031 25.6825 5.17334 25.2753 4.91693C24.5528 4.46213 23.6981 2.69243 23.1348 4.46213C24.1849 5.43709 23.5739 6.87199 22.2408 6.87199C22.2408 6.87199 22.2333 7.0824 22.2455 7.09912C23.8356 7.02128 24.3898 5.85272 24.0989 4.91693H24.0988ZM5.54857 7.82236C5.83796 7.60252 6.90923 6.9874 6.65077 8.16285C6.76273 8.16285 7.12957 7.91272 7.12957 7.57173C7.12957 6.83961 6.12352 6.50546 6.12352 5.79993C6.12352 4.74723 7.8054 4.75142 7.75386 4.91693C7.46347 5.85267 8.01781 7.02133 9.60774 7.09912C9.61941 7.0824 9.61198 6.87199 9.61198 6.87199C8.27946 6.87199 7.66839 5.43699 8.718 4.46213C8.15467 2.69243 7.29996 4.46213 6.57747 4.91693C6.17032 5.17339 5.04532 5.02031 4.95665 5.52685C4.82972 6.25164 6.12347 6.24171 5.54852 7.82236H5.54857ZM10.0632 10.7456C10.5617 10.309 11.2779 10.3189 11.6883 10.4458C11.4202 10.1152 10.7922 9.84418 10.6079 9.8113C10.4672 9.86404 10.0633 10.2787 10.0633 10.7455L10.0632 10.7456ZM16.702 0.945674L15.9263 0L15.1508 0.945674L15.9264 1.94095L16.7021 0.945674H16.702ZM21.1296 3.8052L20.578 3.1331L20.0269 3.8052L20.578 4.46208L21.1296 3.80515V3.8052ZM25.6034 23.2314L24.9042 22.4915L24.205 23.2314L24.9042 23.8805L25.6034 23.2313V23.2314ZM11.8263 3.8051L11.2747 3.133L10.7236 3.8051L11.2747 4.46203L11.8263 3.8051H11.8263ZM10.2464 7.09902H12.3036C14.0331 7.09902 14.8115 6.03744 15.0466 5.11681H16.8065C17.0418 6.03749 17.8194 7.09907 19.5497 7.09907H21.6069C21.6069 7.09907 21.9667 6.61084 22.0569 6.36909C22.3819 5.49911 21.9667 5.09336 21.361 5.09336L20.5779 5.80303L19.7949 5.09336C19.1891 5.09336 18.774 5.49911 19.0989 6.36909C19.1403 6.48036 19.2396 6.64372 19.3335 6.78732C18.6035 6.68703 17.6718 6.18737 17.4674 5.11681C17.4674 5.11681 18.0068 4.25995 18.1422 3.91322C18.6285 2.66633 18.0074 2.15659 17.099 2.15659L15.9263 3.53521L14.7536 2.15659C13.8453 2.15659 13.2241 2.66628 13.711 3.91322C13.8459 4.26 14.3858 5.11686 14.3858 5.11686C14.1808 6.18742 13.2491 6.68708 12.5192 6.78737C12.6137 6.64377 12.7124 6.48036 12.7538 6.36914C13.0781 5.49916 12.6641 5.09341 12.0578 5.09341L11.2748 5.80308L10.4917 5.09341C9.88551 5.09341 9.47137 5.49916 9.7958 6.36914C9.88601 6.61089 10.2465 7.09912 10.2465 7.09912L10.2464 7.09902ZM31.5153 13.4759C31.1181 13.677 28.7886 14.7683 25.8045 14.3647C25.8354 14.2223 25.8616 14.079 25.8831 13.9349C27.8691 13.6973 29.4836 13.3605 30.5124 12.7882C31.6852 12.1355 32.198 10.5774 31.606 9.41807C31.5907 9.38884 31.5483 9.38365 31.527 9.4081C31.2027 9.78152 29.1629 12.0003 25.9495 12.69C25.9413 12.5236 25.926 12.3576 25.9038 12.1924C27.4646 11.3073 28.9883 10.2874 29.714 9.35486C30.8109 7.9449 30.71 6.14656 29.6663 5.22958C29.6554 5.22028 29.6411 5.2161 29.627 5.21811C29.6129 5.22011 29.6003 5.22811 29.5924 5.24005C29.2623 5.78467 26.1715 10.7804 22.778 12.937C22.7366 12.9635 22.6949 12.9894 22.6528 13.0148C22.5556 13.0738 22.545 13.2002 22.6278 13.2754C23.019 13.6299 23.2622 14.1234 23.2622 14.6712C23.2622 15.6236 22.528 16.4158 21.5575 16.5875C21.0643 16.6831 20.3523 16.6554 19.6686 16.4294C19.6378 16.4194 19.606 16.4398 19.606 16.4706V19.4873C19.606 19.5358 19.6798 19.5478 19.6973 19.5013C20.1129 18.4001 21.3573 18.166 21.9015 18.166C22.0974 19.3431 22.4472 20.3181 22.9017 20.8428C23.6416 21.6955 24.85 21.6835 25.374 21.094C25.3826 21.0842 25.3864 21.071 25.3841 21.0582C25.3818 21.0454 25.3738 21.0343 25.3623 21.0281C25.0544 20.8512 23.2929 19.7697 22.9403 17.9975C23.0795 17.9494 23.2154 17.8951 23.3455 17.8308C23.9141 18.7718 24.7417 19.6099 25.4079 19.93C26.5271 20.4669 27.5517 20.2057 28.0061 19.4199C28.0226 19.3922 28.0024 19.3577 27.9689 19.3546C27.2767 19.2992 25.1521 18.6904 24.2474 17.2069C24.351 17.1118 24.4524 17.0126 24.5469 16.9071C25.4934 17.6277 26.8319 18.2647 27.7901 18.3948C28.9113 18.5473 30.1817 18.1896 30.2125 16.8857C30.213 16.8595 30.1897 16.8381 30.1621 16.8398C29.7634 16.8637 27.1243 16.9786 25.2439 15.8992C25.3092 15.7751 25.3702 15.6486 25.4265 15.5201C25.4265 15.5201 28.2679 16.1917 29.6142 15.9692C30.952 15.7484 31.7357 14.751 31.5843 13.5103C31.5801 13.4794 31.544 13.4612 31.5153 13.4758L31.5153 13.4759ZM6.42608 15.5203C6.48264 15.6488 6.54372 15.7752 6.6092 15.8994C4.72938 16.9782 2.09139 16.8644 1.69113 16.8399C1.66299 16.8383 1.63963 16.8607 1.64013 16.8863C1.67157 18.1897 2.94141 18.5474 4.06257 18.3949C5.02037 18.2649 6.35927 17.6278 7.3058 16.9072C7.40085 17.0127 7.50174 17.1119 7.60517 17.207C6.70006 18.6904 4.576 19.2993 3.8837 19.3547C3.85027 19.3578 3.83061 19.3922 3.84657 19.4199C4.30102 20.2058 5.32563 20.4669 6.44529 19.9301C7.11105 19.61 7.93868 18.7719 8.50729 17.8309C8.63781 17.8951 8.77373 17.9495 8.91229 17.9975C8.55978 19.7698 6.79831 20.8512 6.49035 21.0282C6.47898 21.0344 6.47106 21.0455 6.46879 21.0583C6.46652 21.0711 6.47016 21.0842 6.47867 21.094C7.00268 21.6836 8.21156 21.6956 8.95151 20.8429C9.40606 20.3181 9.75533 19.3431 9.95122 18.1661C10.4959 18.1661 11.7397 18.4002 12.1554 19.5014C12.1735 19.5479 12.2472 19.5358 12.2472 19.4873V16.4706C12.2472 16.4398 12.2149 16.4194 12.1841 16.4294C11.5003 16.6554 10.7884 16.6831 10.2958 16.5875C9.32478 16.4158 8.59056 15.6237 8.59056 14.6712C8.59056 14.1233 8.8342 13.6294 9.22494 13.2748C9.30826 13.2001 9.29714 13.0737 9.20049 13.0148C9.15805 12.9893 9.11594 12.9634 9.07415 12.9369C5.68284 10.7814 2.59359 5.78936 2.26074 5.241C2.24527 5.2154 2.20815 5.21022 2.18529 5.23002C1.14317 6.14751 1.04178 7.94535 2.13859 9.35476C2.86433 10.2873 4.38789 11.3072 5.94823 12.1923C5.92622 12.3575 5.91117 12.5235 5.90313 12.6899C2.69233 12.0006 0.654243 9.78546 0.326677 9.40954C0.304923 9.38395 0.261314 9.38919 0.246495 9.41842C-0.344271 10.5782 0.168508 12.1353 1.34021 12.7881C2.36906 13.3604 3.98349 13.6972 5.96954 13.9348C5.99099 14.0789 6.01719 14.2222 6.04807 14.3645C3.06715 14.7677 0.738666 13.679 0.338403 13.4763C0.308665 13.4612 0.27254 13.48 0.268848 13.5113C0.118163 14.752 0.901127 15.7484 2.23898 15.9692C3.58477 16.1917 6.42608 15.5201 6.42608 15.5201V15.5203ZM24.9041 24.8334L23.8689 24.0188C23.4559 24.2648 23.1522 24.6555 23.0343 25.1134C22.4116 25.2006 20.7138 24.8236 20.8788 24.5735C22.7397 21.9563 21.3163 20.3981 19.6059 20.4848V22.2425C19.6059 22.807 19.1132 23.2643 18.5063 23.2643H17.3252C16.4779 23.2643 15.9263 24.1161 15.9263 24.1161C15.9263 24.1161 15.3748 23.2643 14.5275 23.2643H13.3462C12.739 23.2643 12.2474 22.807 12.2474 22.2425V20.4848C10.5368 20.3982 9.11242 21.9564 10.9738 24.5736C11.1373 24.821 9.39224 25.2174 8.57365 25.1171C8.3581 24.8936 8.04695 24.7526 7.69868 24.7526C7.55063 24.7527 7.40376 24.779 7.26493 24.8305C7.26493 24.8305 4.04835 21.7851 3.98943 21.7553L4.01597 21.6937C4.19909 21.3511 3.91882 20.9778 3.74154 21.0039C3.94746 20.7569 3.95709 19.6754 2.81458 19.4253C2.84801 19.6426 2.86497 20.0859 2.86497 20.0859C2.86497 20.0859 1.98322 19.6091 1.54044 20.0206C1.15135 20.4812 1.69128 21.3167 1.69128 21.3167C1.69128 21.3167 1.24002 21.3276 1.01758 21.3088C1.34465 22.4148 2.44146 22.3365 2.67876 22.1182C2.6633 22.2942 3.05997 22.5449 3.39597 22.3438L3.54356 22.2723C3.5696 22.3072 6.70236 25.267 6.70236 25.267C6.55846 25.4806 6.49 25.7427 6.5372 26.0221C6.61155 26.4587 6.97529 26.8205 7.43982 26.9145C7.76783 26.9803 8.07629 26.9166 8.32367 26.7719L9.15294 27.5417C9.22678 27.6085 9.32658 27.6502 9.43799 27.6425C9.64082 27.6288 9.79265 27.4643 9.77728 27.2759C9.7709 27.1907 9.72739 27.1177 9.66736 27.0623C9.65409 27.0476 8.82273 26.2759 8.82273 26.2759C9.50854 25.7949 10.7864 25.4561 11.8471 25.4561C12.0335 25.4561 12.121 25.2984 12.0568 25.1437C11.5763 23.9881 12.6095 23.1511 13.6781 23.8326C14.1443 24.1297 14.6179 24.7151 14.9746 25.6915C13.2211 26.1161 11.0195 27.2857 10.5741 28.5625C10.4026 29.0555 10.9691 29.7275 11.6571 29.8628C11.6693 29.8655 11.682 29.8632 11.6925 29.8564C11.703 29.8496 11.7103 29.839 11.7128 29.8267C12.0723 27.9207 14.122 26.5003 15.1886 26.2591C15.2422 26.4027 15.2247 26.3562 15.2783 26.4993C14.1167 27.0486 12.9902 28.2074 12.6684 29.5848C12.5209 30.2157 13.2243 30.7843 13.8051 30.94C13.8343 30.9478 13.8629 30.9274 13.8645 30.8992C13.975 29.1572 14.7442 27.6779 15.4333 27.0048C15.4521 27.1363 15.4663 27.2685 15.4758 27.4011C15.4758 27.4011 14.7703 29.3671 14.7703 30.8016C14.7703 31.4689 15.7619 31.9347 15.9085 32C16.0916 31.9347 17.0828 31.4689 17.0828 30.8016C17.0828 29.3671 16.3772 27.4011 16.3772 27.4011C16.3869 27.2685 16.4012 27.1363 16.4203 27.0048C17.1088 27.6779 17.8786 29.1567 17.9885 30.8986C17.9901 30.9269 18.0193 30.9478 18.0479 30.94C18.6292 30.7844 19.3322 30.2157 19.1851 29.5849C18.8628 28.2074 17.7368 27.0487 16.5752 26.4994C16.6283 26.3563 16.6108 26.4027 16.6644 26.2591C17.7315 26.5004 19.7807 27.9207 20.1401 29.8267C20.1427 29.8389 20.1501 29.8495 20.1605 29.8563C20.171 29.8631 20.1837 29.8654 20.1959 29.8628C20.8834 29.7275 21.4509 29.0555 21.2784 28.5626C20.834 27.2857 18.6319 26.1162 16.8784 25.6916C17.2357 24.7151 17.7092 24.1297 18.1753 23.8326C19.2435 23.1512 20.2766 23.9883 19.7961 25.1439C19.7318 25.2984 19.8189 25.4561 20.0058 25.4561C21.2056 25.4561 22.6835 25.8895 23.2685 26.4707C23.6423 27.0315 24.333 27.3903 25.1123 27.3134C25.9978 27.2268 26.7199 26.5615 26.8197 25.7391C26.9067 25.0185 26.5341 24.3715 25.94 24.019L24.9042 24.8337L24.9041 24.8334ZM17.2737 19.5839C17.6427 19.4472 18.2208 19.5578 18.2011 20.0904C18.1964 20.211 18.3658 20.211 18.378 20.0878C18.4884 19.2905 17.9495 19.0606 17.3857 19.1541C17.3157 18.88 17.2584 18.6403 17.193 18.4027C17.1411 18.2106 17.1219 17.8497 17.3444 17.8497C17.4644 17.8497 17.4161 18.1855 17.4049 18.3301C17.3948 18.457 17.4405 18.5338 17.5435 18.5374C17.6078 18.54 17.688 18.4581 17.7357 18.4037C18.0585 18.0387 18.1334 17.4737 17.7554 17.2012C17.439 16.9724 16.6469 17.1427 16.4291 17.4685C16.3963 17.3458 16.2391 17.1432 16.1637 17.0549C16.0905 16.9688 16.0714 16.9098 16.1728 16.8341C16.2206 16.7975 16.365 16.654 16.365 16.5056C16.365 16.4179 16.297 16.256 16.081 16.256C15.9105 16.256 15.721 16.374 15.721 16.6372C15.721 16.6957 15.7353 16.7584 15.773 16.8258C15.6652 16.808 15.3727 16.8153 15.2225 16.8524L17.2999 22.5531C17.8945 22.2596 18.3303 21.7949 18.3303 21.2962C18.3303 20.8711 17.7043 21.0121 17.4002 21.3437C17.3025 20.8048 17.2154 20.3072 17.1204 19.8111C17.0944 19.6742 17.164 19.6252 17.2738 19.5839L17.2737 19.5839ZM14.3363 15.7115L14.7727 16.9239C14.399 17.0128 13.798 17.2853 13.798 17.6461C13.798 18.1266 14.648 18.4393 15.1396 18.4017C15.1151 18.5114 15.1433 18.609 15.2198 18.6983C15.0414 18.6983 14.7048 18.7813 14.5944 18.9004C14.3337 18.6576 13.926 18.5693 13.7322 18.7171C13.5374 18.8659 13.5316 19.1182 13.7349 19.4033C13.8766 19.6007 13.9297 19.7954 13.7704 20.0241C14.3629 20.0241 14.1447 19.2539 14.3767 19.2539C14.3464 19.4033 14.365 19.5761 14.4325 19.7678C14.4771 19.8951 14.4771 19.9855 14.4006 20.1082C14.2095 20.4137 13.9122 21.1155 13.9526 21.75C13.7583 21.7489 13.6595 21.7013 13.728 21.4361C13.7535 21.3373 13.6925 21.2669 13.6118 21.3886C13.5226 21.5228 13.4796 21.752 13.4796 21.8501C13.4796 22.4152 14.1526 22.529 14.4096 22.4094C15.1529 23.1287 16.6129 22.9368 17.1018 22.6956L14.5313 15.6424C14.4787 15.5093 14.2903 15.573 14.3364 15.7114L14.3363 15.7115ZM14.2471 21.5212C14.194 21.2308 14.598 20.7118 15.1119 20.2111C15.0026 20.5374 15.0705 21.0998 15.285 21.2936C14.9123 21.2936 14.4695 21.3635 14.2471 21.5212H14.2471Z" fill="white"/>
</svg>
