<svg width="96" height="96" viewBox="0 0 96 96" fill="none" xmlns="http://www.w3.org/2000/svg">
<path fill-rule="evenodd" clip-rule="evenodd" d="M48 0C61.2562 0 73.2562 5.3625 81.9375 14.0625C90.6188 22.7437 96 34.7438 96 48C96 61.2562 90.6188 73.2562 81.9375 81.9375C73.2562 90.6188 61.2562 96 48 96C34.7438 96 22.7437 90.6188 14.0625 81.9375C5.38125 73.2562 0 61.2562 0 48C0 34.7438 5.38125 22.7437 14.0625 14.0625C22.7437 5.3625 34.7438 0 48 0Z" fill="white"/>
<path fill-rule="evenodd" clip-rule="evenodd" d="M56.9436 19.7437C59.7936 19.7437 62.1186 22.0687 62.1186 24.9374C62.1186 27.8062 59.8124 30.1499 56.9436 30.1499C54.0749 30.1499 51.7686 27.8249 51.7686 24.9374C51.7686 22.0687 54.0749 19.7437 56.9436 19.7437ZM43.7249 63.0374L44.6811 52.2187C45.0749 52.2937 45.4686 52.3124 45.8624 52.2749L55.5561 74.6624C56.1374 76.0124 57.7124 76.6124 59.0436 75.9562C60.3561 75.3186 60.9749 73.6687 60.3749 72.3187L50.4374 49.3499C50.3624 49.1999 50.2874 49.0499 50.1936 48.9187L56.7186 38.8687L62.2874 43.6687C62.3437 43.7249 62.3999 43.7624 62.4562 43.8187C62.8874 44.1562 63.4499 44.3624 64.0686 44.3624H69.2811C70.5936 44.3624 71.6811 43.4437 71.6811 42.2999C71.6811 41.1749 70.5936 40.2374 69.2811 40.2374H65.6811L57.2436 32.9437C56.9061 32.4374 56.4749 31.9874 55.9311 31.6312L54.4311 30.6562C53.7374 30.2062 52.9686 29.9624 52.1999 29.9249C51.9749 29.9062 51.7686 29.9249 51.5436 29.9437L35.6436 30.1874C35.5874 30.1874 35.5499 30.1874 35.4936 30.1874H35.4749C34.6124 30.2249 33.7686 30.7124 33.3374 31.5374L29.2874 39.2624C28.6311 40.4999 29.1186 42.0562 30.3561 42.7124C31.5936 43.3687 33.1311 42.8812 33.7874 41.6437L37.4624 34.6312H46.3686L40.1624 44.1937C39.5061 45.2062 39.2999 46.3874 39.4874 47.5124C39.4499 47.6437 39.4311 47.7749 39.4311 47.9062L38.2686 61.0687L25.8749 66.5249C24.4686 67.1437 23.8686 68.7937 24.5624 70.1624C25.2561 71.5499 26.9624 72.1687 28.3686 71.5499L41.7936 65.6249C41.8686 65.5874 41.9436 65.5687 42.0186 65.5312L42.0936 65.4936C43.1436 65.0812 43.7436 64.0874 43.7249 63.0374Z" fill="black"/>
<path fill-rule="evenodd" clip-rule="evenodd" d="M96 48C96 34.7438 90.6188 22.7437 81.9375 14.0625C73.2562 5.3625 61.2562 0 48 0C36.1875 0 25.4062 4.275 17.0438 11.3625L17.025 11.3438C15.9938 12.2063 15 13.1062 14.0625 14.0625C13.125 15.0188 12.2063 15.9938 11.3438 17.025L11.3625 17.0438C4.275 25.3875 0 36.1875 0 48C0 61.2562 5.38125 73.2562 14.0625 81.9375C22.7437 90.6188 34.7438 96 48 96C59.8125 96 70.5938 91.725 78.9563 84.6375L78.975 84.6562C79.9875 83.7937 80.9812 82.875 81.9375 81.9375C82.875 81 83.7937 80.0063 84.6562 78.975L84.6375 78.9563C91.725 70.5938 96 59.8125 96 48ZM48 8.04375C59.025 8.04375 69.0188 12.525 76.2563 19.7438C83.4938 26.9813 87.9563 36.975 87.9563 48C87.9563 57.5812 84.5625 66.375 78.9375 73.275L22.725 17.0438C29.625 11.4188 38.4188 8.04375 48 8.04375ZM48 87.9563C36.9562 87.9563 26.9813 83.475 19.7438 76.2563C12.5063 69.0188 8.04375 59.0438 8.04375 48C8.04375 38.4188 11.4375 29.625 17.0625 22.725L73.275 78.9375C66.375 84.5813 57.5812 87.9563 48 87.9563Z" fill="#EC1C24"/>
</svg>
