<svg width="21" height="12" viewBox="0 0 21 12" fill="none" xmlns="http://www.w3.org/2000/svg">
<path d="M19.5473 0.999993H16.2568C16.1225 0.999992 15.9907 1.0364 15.8755 1.10535C15.7602 1.1743 15.6658 1.27321 15.6023 1.39155C15.6023 1.39155 14.2899 3.80848 13.8684 4.62255C12.7343 6.81249 11.9999 6.12499 11.9999 5.10862V1.60416C11.9999 1.31132 11.8836 1.03047 11.6765 0.823397C11.4695 0.616325 11.1886 0.499993 10.8958 0.499993H8.42177C8.08485 0.474943 7.74712 0.53644 7.44066 0.678645C7.1342 0.82085 6.86918 1.03904 6.67077 1.31249C6.67077 1.31249 7.92703 1.10937 7.92703 2.80207C7.92703 3.22181 7.94865 4.4293 7.96835 5.44207C7.97206 5.59132 7.9299 5.73811 7.84754 5.86262C7.76518 5.98714 7.6466 6.08339 7.5078 6.13837C7.36901 6.19336 7.21668 6.20443 7.07139 6.1701C6.92611 6.13577 6.79485 6.05768 6.69535 5.94638C5.6827 4.53797 4.8439 3.01239 4.19715 1.40279C4.14161 1.28239 4.05269 1.18044 3.94095 1.10904C3.82921 1.03765 3.69934 0.9998 3.56674 0.999993C2.85314 0.999993 1.42516 0.999993 0.577131 0.999993C0.494897 0.999434 0.413756 1.01885 0.34068 1.05656C0.267604 1.09428 0.204777 1.14918 0.157596 1.21653C0.110416 1.28389 0.0802926 1.36169 0.0698144 1.44325C0.0593363 1.52482 0.0688165 1.60771 0.0974407 1.6848C1.00523 4.17486 4.9157 12 9.37911 12H11.2578C11.4546 12 11.6434 11.9218 11.7826 11.7826C11.9217 11.6434 11.9999 11.4546 11.9999 11.2578V10.1234C11.9999 9.98111 12.0416 9.84191 12.1197 9.72297C12.1979 9.60404 12.3091 9.51056 12.4397 9.45406C12.5703 9.39756 12.7146 9.38051 12.8548 9.405C12.995 9.4295 13.1249 9.49447 13.2286 9.59191L15.4772 11.7046C15.6792 11.8944 15.9458 12 16.2229 12H19.1758C20.5999 12 20.5999 11.0118 19.8234 10.2471C19.277 9.70888 17.3051 7.63042 17.3051 7.63042C17.1362 7.45549 17.0355 7.22592 17.0212 6.9832C17.0068 6.74049 17.0797 6.50064 17.2267 6.30699C17.8641 5.46823 18.9066 4.09524 19.3487 3.50706C19.9531 2.70312 21.0468 0.999993 19.5473 0.999993Z" fill="#577FA8"/>
</svg>
